{
    "accessors" : [
        {
            "bufferView" : 0, 
            "componentType" : 5123, 
            "count" : 65058, 
            "max" : [
                32685
            ], 
            "min" : [
                0
            ], 
            "type" : "SCALAR"
        }, 
        {
            "bufferView" : 1, 
            "componentType" : 5126, 
            "count" : 32686, 
            "max" : [
                15.0, 
                63.0, 
                -0.0
            ], 
            "min" : [
                -15.0, 
                -63.0, 
                -7.0
            ], 
            "type" : "VEC3"
        }, 
        {
            "bufferView" : 2, 
            "componentType" : 5126, 
            "count" : 32686, 
            "max" : [
                1.0, 
                1.0, 
                1.0
            ], 
            "min" : [
                -1.0, 
                -1.0, 
                -1.0
            ], 
            "type" : "VEC3"
        }, 
        {
            "bufferView" : 3, 
            "componentType" : 5126, 
            "count" : 32686, 
            "max" : [
                1.0, 
                0.0, 
                -0.0, 
                1.0
            ], 
            "min" : [
                1.0, 
                0.0, 
                -0.0, 
                -1.0
            ], 
            "type" : "VEC4"
        }, 
        {
            "bufferView" : 4, 
            "componentType" : 5126, 
            "count" : 32686, 
            "max" : [
                0.7714840173721313, 
                0.5
            ], 
            "min" : [
                0.7714840173721313, 
                0.5
            ], 
            "type" : "VEC2"
        }
    ], 
    "asset" : {
        "generator" : "Khronos Blender glTF 2.0 exporter", 
        "version" : "2.0"
    }, 
    "bufferViews" : [
        {
            "buffer" : 0, 
            "byteLength" : 130116, 
            "byteOffset" : 0, 
            "target" : 34963
        }, 
        {
            "buffer" : 0, 
            "byteLength" : 392232, 
            "byteOffset" : 130116, 
            "target" : 34962
        }, 
        {
            "buffer" : 0, 
            "byteLength" : 392232, 
            "byteOffset" : 522348, 
            "target" : 34962
        }, 
        {
            "buffer" : 0, 
            "byteLength" : 522976, 
            "byteOffset" : 914580, 
            "target" : 34962
        }, 
        {
            "buffer" : 0, 
            "byteLength" : 261488, 
            "byteOffset" : 1437556, 
            "target" : 34962
        }
    ], 
    "buffers" : [
        {
            "byteLength" : 1699044, 
            "uri" : "grass.bin"
        }
    ], 
    "images" : [
        {
            "name" : "grass", 
            "uri" : "grass.jpg"
        }
    ], 
    "materials" : [
        {
            "name" : "palette", 
            "pbrMetallicRoughness" : {
                "baseColorTexture" : {
                    "index" : 0
                }
            }
        }
    ], 
    "meshes" : [
        {
            "name" : "grass", 
            "primitives" : [
                {
                    "attributes" : {
                        "NORMAL" : 2, 
                        "POSITION" : 1, 
                        "TANGENT" : 3, 
                        "TEXCOORD_0" : 4
                    }, 
                    "indices" : 0, 
                    "material" : 0
                }
            ]
        }
    ], 
    "nodes" : [
        {
            "name" : "Camera", 
            "rotation" : [
                0.483536034822464, 
                0.33687159419059753, 
                -0.20870360732078552, 
                0.7804827094078064
            ], 
            "translation" : [
                7.481131553649902, 
                5.34366512298584, 
                6.5076398849487305
            ]
        }, 
        {
            "mesh" : 0, 
            "name" : "grass", 
            "rotation" : [
                0.5000000596046448, 
                0.4999999701976776, 
                -0.5000000596046448, 
                0.4999999403953552
            ], 
            "scale" : [
                0.12199798971414566, 
                0.12199798971414566, 
                0.12199798971414566
            ]
        }, 
        {
            "name" : "Lamp", 
            "rotation" : [
                0.16907575726509094, 
                0.7558802962303162, 
                -0.27217137813568115, 
                0.570947527885437
            ], 
            "scale" : [
                1.0, 
                1.0, 
                0.9999999403953552
            ], 
            "translation" : [
                4.076245307922363, 
                5.903861999511719, 
                -1.0054539442062378
            ]
        }
    ], 
    "samplers" : [
        {}
    ], 
    "scene" : 0, 
    "scenes" : [
        {
            "name" : "Scene", 
            "nodes" : [
                1, 
                2, 
                0
            ]
        }
    ], 
    "textures" : [
        {
            "sampler" : 0, 
            "source" : 0
        }
    ]
}
