{
    "accessors" : [
        {
            "bufferView" : 0, 
            "componentType" : 5123, 
            "count" : 1992, 
            "max" : [
                1347
            ], 
            "min" : [
                0
            ], 
            "type" : "SCALAR"
        }, 
        {
            "bufferView" : 1, 
            "componentType" : 5126, 
            "count" : 1348, 
            "max" : [
                10.968135833740234, 
                46.398834228515625, 
                11.223020553588867
            ], 
            "min" : [
                -3.459059000015259, 
                0.7182566523551941, 
                -13.575132369995117
            ], 
            "type" : "VEC3"
        }, 
        {
            "bufferView" : 2, 
            "componentType" : 5126, 
            "count" : 1348, 
            "max" : [
                0.9998197555541992, 
                0.9919386506080627, 
                0.9969356060028076
            ], 
            "min" : [
                -0.9999220371246338, 
                -0.9999493956565857, 
                -0.9843564629554749
            ], 
            "type" : "VEC3"
        }, 
        {
            "bufferView" : 3, 
            "componentType" : 5123, 
            "count" : 1348, 
            "max" : [
                1, 
                1, 
                0, 
                0
            ], 
            "min" : [
                0, 
                0, 
                0, 
                0
            ], 
            "type" : "VEC4"
        }, 
        {
            "bufferView" : 4, 
            "componentType" : 5126, 
            "count" : 1348, 
            "max" : [
                1.0, 
                1.0, 
                0.0, 
                0.0
            ], 
            "min" : [
                1.14906474074635e-43, 
                0.0, 
                0.0, 
                0.0
            ], 
            "type" : "VEC4"
        }, 
        {
            "bufferView" : 5, 
            "componentType" : 5126, 
            "count" : 2, 
            "max" : [
                0.17562347650527954, 
                0.0, 
                0.0, 
                0.0, 
                0.17562347650527954, 
                0.17562347650527954, 
                1.3259203512916429e-08, 
                0.0, 
                0.0, 
                0.0, 
                0.17562347650527954, 
                0.0, 
                -0.016492009162902832, 
                0.699174165725708, 
                -0.018897879868745804, 
                1.0
            ], 
            "min" : [
                0.0, 
                -0.17562347650527954, 
                0.0, 
                0.0, 
                0.0, 
                0.0, 
                0.0, 
                0.0, 
                -1.3259203512916429e-08, 
                0.0, 
                0.17562347650527954, 
                0.0, 
                -5.859877109527588, 
                -0.741367757320404, 
                -0.07335305213928223, 
                1.0
            ], 
            "type" : "MAT4"
        }, 
        {
            "bufferView" : 6, 
            "componentType" : 5126, 
            "count" : 651, 
            "max" : [
                27.083333333333332
            ], 
            "min" : [
                0.0
            ], 
            "type" : "SCALAR"
        }, 
        {
            "bufferView" : 7, 
            "componentType" : 5126, 
            "count" : 651, 
            "max" : [
                0.7072772979736328, 
                0.7067970633506775, 
                0.7065068483352661, 
                0.7077012658119202
            ], 
            "min" : [
                -0.7071206569671631, 
                -0.7069292068481445, 
                -0.008348163217306137, 
                -0.009103227406740189
            ], 
            "type" : "VEC4"
        }
    ], 
    "animations" : [
        {
            "channels" : [
                {
                    "sampler" : 0, 
                    "target" : {
                        "node" : 4, 
                        "path" : "rotation"
                    }
                }
            ], 
            "samplers" : [
                {
                    "input" : 6, 
                    "interpolation" : "LINEAR", 
                    "output" : 7
                }
            ]
        }
    ], 
    "asset" : {
        "generator" : "Khronos Blender glTF 2.0 exporter", 
        "version" : "2.0"
    }, 
    "bufferViews" : [
        {
            "buffer" : 0, 
            "byteLength" : 3984, 
            "byteOffset" : 0, 
            "target" : 34963
        }, 
        {
            "buffer" : 0, 
            "byteLength" : 16176, 
            "byteOffset" : 3984, 
            "target" : 34962
        }, 
        {
            "buffer" : 0, 
            "byteLength" : 16176, 
            "byteOffset" : 20160, 
            "target" : 34962
        }, 
        {
            "buffer" : 0, 
            "byteLength" : 10784, 
            "byteOffset" : 36336, 
            "target" : 34962
        }, 
        {
            "buffer" : 0, 
            "byteLength" : 21568, 
            "byteOffset" : 47120, 
            "target" : 34962
        }, 
        {
            "buffer" : 0, 
            "byteLength" : 128, 
            "byteOffset" : 68688
        }, 
        {
            "buffer" : 0, 
            "byteLength" : 2604, 
            "byteOffset" : 68816
        }, 
        {
            "buffer" : 0, 
            "byteLength" : 10416, 
            "byteOffset" : 71420
        }
    ], 
    "buffers" : [
        {
            "byteLength" : 81836, 
            "uri" : "huusya.bin"
        }
    ], 
    "materials" : [
        {
            "name" : "\u30de\u30c6\u30ea\u30a2\u30eb", 
            "pbrMetallicRoughness" : {}
        }, 
        {
            "name" : "\u30de\u30c6\u30ea\u30a2\u30eb.002", 
            "pbrMetallicRoughness" : {}
        }
    ], 
    "meshes" : [
        {
            "name" : "\u5186", 
            "primitives" : [
                {
                    "attributes" : {
                        "JOINTS_0" : 3, 
                        "NORMAL" : 2, 
                        "POSITION" : 1, 
                        "WEIGHTS_0" : 4
                    }, 
                    "indices" : 0, 
                    "material" : 0
                }
            ]
        }
    ], 
    "nodes" : [
        {
            "children" : [
                1, 
                3
            ], 
            "name" : "\u30a2\u30fc\u30de\u30c1\u30e5\u30a2", 
            "translation" : [
                0.016492009162902832, 
                0.7236161231994629, 
                0.07335305213928223
            ]
        }, 
        {
            "children" : [
                2
            ], 
            "mesh" : 0, 
            "name" : "\u5186", 
            "scale" : [
                0.17562347650527954, 
                0.17562347650527954, 
                0.17562347650527954
            ], 
            "skin" : 0, 
            "translation" : [
                -0.016492009162902832, 
                -0.741367757320404, 
                -0.07335305213928223
            ]
        }, 
        {
            "name" : "\u7acb\u65b9\u4f53", 
            "scale" : [
                0.33906877040863037, 
                0.33906877040863037, 
                0.33906877040863037
            ], 
            "translation" : [
                -1.4392095804214478, 
                33.66339874267578, 
                -0.1832432597875595
            ]
        }, 
        {
            "children" : [
                4
            ], 
            "name" : "\u30a2\u30fc\u30de\u30c1\u30e5\u30a2_Bone"
        }, 
        {
            "name" : "\u30a2\u30fc\u30de\u30c1\u30e5\u30a2_Bone.001", 
            "rotation" : [
                0.6430396437644958, 
                -0.6422404646873474, 
                0.295197457075119, 
                0.2947636544704437
            ], 
            "scale" : [
                0.9999999403953552, 
                1.0, 
                1.0
            ], 
            "translation" : [
                0.6826821565628052, 
                5.118509292602539, 
                -0.05445561558008194
            ]
        }
    ], 
    "scene" : 0, 
    "scenes" : [
        {
            "name" : "Scene", 
            "nodes" : [
                0
            ]
        }
    ], 
    "skins" : [
        {
            "inverseBindMatrices" : 5, 
            "joints" : [
                3, 
                4
            ], 
            "skeleton" : 0
        }
    ]
}
